<svg width="32" height="32" viewBox="0 0 32 32" fill="none" xmlns="http://www.w3.org/2000/svg">
<path fill-rule="evenodd" clip-rule="evenodd" d="M12.6666 16.7382C16.3394 16.7382 19.2834 13.7561 19.2834 10.0357C19.2834 6.31543 16.3394 3.33325 12.6666 3.33325C8.99387 3.33325 6.04979 6.31543 6.04979 10.0357C6.04979 13.7561 8.99387 16.7382 12.6666 16.7382ZM12.6666 20.0202C7.27225 20.0202 2.66663 20.8827 2.66663 24.3285C2.66663 27.773 7.24423 28.6666 12.6666 28.6666C18.0597 28.6666 22.6666 27.8041 22.6666 24.3582C22.6666 20.9125 18.089 20.0202 12.6666 20.0202ZM26.5305 12.7837H28.1346C28.7949 12.7837 29.3333 13.3297 29.3333 13.9993C29.3333 14.6687 28.7949 15.2147 28.1346 15.2147H26.5305V16.7845C26.5305 17.4541 25.9936 17.9999 25.332 17.9999C24.6717 17.9999 24.1333 17.4541 24.1333 16.7845V15.2147H22.532C21.8702 15.2147 21.3333 14.6687 21.3333 13.9993C21.3333 13.3297 21.8702 12.7837 22.532 12.7837H24.1333V11.2154C24.1333 10.5459 24.6717 9.99992 25.332 9.99992C25.9936 9.99992 26.5305 10.5459 26.5305 11.2154V12.7837Z" fill="white"/>
</svg>
