<svg width="27" height="45" viewBox="0 0 27 45" fill="none" xmlns="http://www.w3.org/2000/svg">
<path fill-rule="evenodd" clip-rule="evenodd" d="M5.97778 1.11631C5.97778 3.38501 4.88508 5.83311 2.73267 8.38626C0.315173 11.2539 -0.284666 13.4992 0.830499 15.5052C1.35448 16.4477 2.98126 17.6321 3.27871 17.2879C3.36652 17.1864 4.07004 16.1165 4.84221 14.9104C6.34304 12.5661 7.62682 10.0414 7.62682 9.43405C7.62682 9.22979 7.71958 9.06272 7.83295 9.06272C8.57358 9.06272 7.49634 12.753 6.05137 15.1667C5.65745 15.8245 4.84303 17.4222 4.24154 18.7171C1.11249 25.4524 1.93124 31.8107 6.22596 34.1304C7.32958 34.7262 7.75167 35.0611 9.23684 35.14L10.1893 35.2142C10.2382 35.2181 10.2874 35.2135 10.3347 35.2007C10.6615 35.1127 10.796 34.7224 10.5928 34.4518L10.4861 34.3096C9.33234 32.772 9.18001 32.2731 9.1864 30.0518C9.19341 27.6534 9.73904 25.5374 10.7344 24.0496C11.178 23.3864 11.5015 22.5795 12.0266 21.9788C12.8679 21.0164 14.2469 19.7058 14.8342 19.4044C17.2442 18.167 18.7609 18.6692 19.8852 21.0768C20.4768 22.3437 20.6281 24.8292 20.2472 27.0229C19.9002 29.0209 18.5668 31.5816 16.993 33.2718C14.7247 35.708 12.1052 36.7583 8.76054 36.5728C6.49888 36.4473 5.34702 35.982 3.89731 34.608C2.15942 32.961 1.03065 30.4557 1.03065 28.2457C1.03065 27.6651 0.946963 27.2602 0.840599 27.3268C0.466885 27.5607 0 30.3785 0 32.3986C0 39.0999 4.05046 43.8958 10.1896 44.4641C12.1135 44.6423 14.4234 44.1527 16.6644 43.0922C20.8622 41.1052 23.7089 38.0561 25.621 33.4978C26.6341 31.0825 26.9965 29.3762 27 27.0047C27.0058 23.277 25.8139 19.9885 23.7106 17.927C21.3718 15.6351 19.4987 14.8812 16.0782 14.8547C12.0572 14.8238 9.59186 15.8824 5.77268 19.2801L4.49941 20.4129L4.80036 19.6834C5.29178 18.4917 6.0557 17.3825 7.44769 15.8398C10.3191 12.6574 10.9597 11.4576 10.9554 9.27156C10.9523 7.74113 10.6143 6.62861 9.59392 4.79138C8.86381 3.47648 6.48362 0.5 6.16227 0.5C6.06085 0.5 5.97778 0.777348 5.97778 1.11631Z" fill="#80D0E3"/>
</svg>
