<svg width="3302" height="1270" viewBox="0 0 3302 1270" fill="none" xmlns="http://www.w3.org/2000/svg">
<g opacity="0.1">
<path d="M0.0412368 1143.44C-1.90176 1114.89 64.4842 703.79 270.072 376.277C454.567 82.7194 820.364 -62.3175 1198.58 192.322C1603.81 465.222 1974.49 520.858 2283.73 477.776C2588.96 434.948 2810.77 246.265 2914.96 122.766C3140.92 -144.047 3404.88 55.4894 3261.09 419.656C3193.53 589 3063.5 626.849 2845.92 626.427C2618.49 625.986 2290.45 557.638 1819.37 599.545C1365.01 640.268 841.89 786.61 531.925 1003.3C202.022 1234.12 15.1502 1392.33 0.0412368 1143.44Z" fill="url(#paint0_linear_408_407)"/>
</g>
<defs>
<linearGradient id="paint0_linear_408_407" x1="3026.77" y1="1176.93" x2="294.086" y2="-115.511" gradientUnits="userSpaceOnUse">
<stop stop-color="#80D0E3"/>
<stop offset="1" stop-color="#00AED9"/>
</linearGradient>
</defs>
</svg>
