<svg width="104" height="32" viewBox="0 0 104 32" fill="none" xmlns="http://www.w3.org/2000/svg">
<path d="M54.837 8.04048C54.837 9.19374 53.9078 10.1224 52.7545 10.1224C51.6013 10.1224 50.6726 9.19374 50.6726 8.04048C50.6726 6.88723 51.5696 5.9586 52.7545 5.9586C53.9404 5.9906 54.837 6.91955 54.837 8.04048ZM46.2523 12.2369V12.7495C46.2523 12.7495 45.2596 11.4676 43.1454 11.4676C39.6543 11.4676 36.9312 14.1264 36.9312 17.8099C36.9312 21.4617 39.6223 24.1522 43.1454 24.1522C45.2916 24.1522 46.2523 22.8389 46.2523 22.8389V23.3832C46.2523 23.6395 46.4449 23.8312 46.7009 23.8312H49.2951V11.787H46.7009C46.4449 11.7879 46.2523 12.0126 46.2523 12.2369ZM46.2523 19.9561C45.7723 20.661 44.811 21.2697 43.6581 21.2697C41.6082 21.2697 40.0383 19.9884 40.0383 17.8099C40.0383 15.6317 41.6082 14.3504 43.6581 14.3504C44.7793 14.3504 45.8043 14.9911 46.2523 15.6637V19.9561ZM51.2173 11.7879H54.2921V23.8322H51.2173V11.7879ZM97.1507 11.4673C95.0365 11.4673 94.0433 12.7492 94.0433 12.7492V5.9906H90.9685V23.8322H93.5633C93.8196 23.8322 94.0113 23.6078 94.0113 23.3835V22.8392C94.0113 22.8392 95.0046 24.1525 97.1181 24.1525C100.61 24.1525 103.332 21.4626 103.332 17.8108C103.332 14.1591 100.61 11.4673 97.1507 11.4673ZM96.6381 21.2373C95.4525 21.2373 94.5239 20.6293 94.0433 19.9241V15.6317C94.5239 14.9911 95.5489 14.3184 96.6381 14.3184C98.688 14.3184 100.258 15.5997 100.258 17.7779C100.258 19.9561 98.6883 21.2373 96.6381 21.2373ZM89.3672 16.6893V23.8642H86.2918V17.0413C86.2918 15.0557 85.6511 14.2544 83.9225 14.2544C82.9939 14.2544 82.0326 14.7351 81.4231 15.44V23.8325H78.3489V11.7882H80.7824C81.0388 11.7882 81.2311 12.0126 81.2311 12.2369V12.7495C82.128 11.8202 83.3129 11.4676 84.4979 11.4676C85.8434 11.4676 86.9647 11.8526 87.8617 12.6212C88.9503 13.5181 89.3672 14.6711 89.3672 16.6893ZM70.8844 11.4673C68.7708 11.4673 67.7776 12.7492 67.7776 12.7492V5.9906H64.7028V23.8322H67.297C67.5533 23.8322 67.7456 23.6078 67.7456 23.3835V22.8392C67.7456 22.8392 68.7388 24.1525 70.8524 24.1525C74.3442 24.1525 77.0667 21.4626 77.0667 17.8108C77.0987 14.1588 74.3762 11.4673 70.8844 11.4673ZM70.3718 21.2373C69.1868 21.2373 68.2582 20.6293 67.7776 19.9241V15.6317C68.2582 14.9911 69.2832 14.3184 70.3718 14.3184C72.4223 14.3184 73.9915 15.5997 73.9915 17.7779C73.9915 19.9561 72.4223 21.2373 70.3718 21.2373ZM62.0439 11.4673C62.9726 11.4673 63.4532 11.6279 63.4532 11.6279V14.4784C63.4532 14.4784 60.8907 13.6135 59.2894 15.4397V23.8638H56.214V11.7879H58.8088C59.0651 11.7879 59.2568 12.0122 59.2568 12.2366V12.7492C59.8341 12.0762 61.0833 11.4673 62.0439 11.4673ZM30.1089 22.7429C29.9489 22.3586 29.7886 21.9423 29.6286 21.5897C29.372 21.0133 29.1156 20.4684 28.892 19.9561L28.86 19.9241C26.6495 15.1191 24.2796 10.2507 21.7807 5.4463L21.6848 5.25365C21.4219 4.75525 21.1658 4.25336 20.9164 3.74809C20.5958 3.17114 20.2758 2.56315 19.7632 1.9862C18.7383 0.704946 17.2647 0 15.6954 0C14.0935 0 12.6523 0.70495 11.5957 1.92189C11.115 2.49819 10.7624 3.10683 10.4424 3.68377C10.1924 4.18872 9.93631 4.69061 9.67412 5.18934L9.5778 5.38197C7.11129 10.1864 4.70909 15.0551 2.4989 19.8598L2.46659 19.9234C2.24259 20.4367 1.98595 20.981 1.72964 21.557C1.56964 21.9096 1.40964 22.294 1.24965 22.7103C0.833016 23.8952 0.704692 25.0165 0.865329 26.17C1.21764 28.5726 2.81889 30.5898 5.0294 31.4874C5.86235 31.84 6.72729 32 7.62391 32C7.88023 32 8.20023 31.968 8.45686 31.9357C9.51412 31.8077 10.6031 31.4557 11.6603 30.8471C12.9736 30.1101 14.2228 29.0535 15.6321 27.5159C17.0413 29.0535 18.3226 30.1101 19.6038 30.8471C20.6614 31.4557 21.75 31.8077 22.807 31.9357C23.0633 31.9683 23.3839 32 23.6402 32C24.5372 32 25.4338 31.84 26.2344 31.4874C28.4769 30.5898 30.0462 28.5406 30.3988 26.17C30.6532 25.0491 30.5252 23.9285 30.1089 22.7429ZM15.6631 24.4085C13.9332 22.2303 12.812 20.1804 12.428 18.4512C12.268 17.7142 12.2357 17.0736 12.332 16.497C12.3957 15.9843 12.5883 15.5357 12.8446 15.1514C13.4532 14.2871 14.4782 13.7421 15.6634 13.7421C16.849 13.7421 17.906 14.2548 18.4826 15.1514C18.7389 15.5357 18.9309 15.9846 18.9955 16.497C19.0912 17.0739 19.0592 17.7462 18.8992 18.4512C18.5136 20.1484 17.3924 22.1986 15.6631 24.4085ZM28.443 25.914C28.219 27.5796 27.0978 29.0215 25.5285 29.6621C24.7599 29.9821 23.9266 30.0784 23.0943 29.9821C22.2937 29.8858 21.4924 29.6295 20.6601 29.1495C19.5069 28.5082 18.3539 27.5159 17.0084 26.042C19.1222 23.4478 20.4035 21.077 20.8841 18.9635C21.1084 17.9702 21.1408 17.0736 21.0441 16.2403C20.9165 15.4397 20.6278 14.7027 20.1795 14.0621C19.1859 12.6202 17.52 11.7879 15.6628 11.7879C13.8056 11.7879 12.1397 12.6529 11.1467 14.0621C10.6984 14.7027 10.4098 15.4397 10.2818 16.2403C10.1538 17.0736 10.1855 18.0022 10.4418 18.9635C10.9221 21.077 12.2353 23.4795 14.3172 26.074C13.004 27.5476 11.8187 28.5409 10.6655 29.1815C9.83251 29.6621 9.03221 29.9184 8.23159 30.0141C7.36696 30.1104 6.5337 29.9821 5.79707 29.6941C4.22783 29.0535 3.10657 27.6116 2.88257 25.946C2.78658 25.1454 2.85025 24.3448 3.17089 23.4478C3.26657 23.1272 3.4272 22.8072 3.5872 22.4229C3.81151 21.9103 4.06719 21.3653 4.32382 20.821L4.35615 20.7573C6.56602 15.9843 8.93621 11.1156 11.4027 6.37523L11.4987 6.1826C11.7554 5.70261 12.0117 5.18998 12.2677 4.70935C12.524 4.19672 12.812 3.71609 13.1646 3.29946C13.8372 2.53147 14.7338 2.11452 15.7271 2.11452C16.7204 2.11452 17.617 2.53147 18.2896 3.29946C18.6423 3.71705 18.9302 4.19768 19.1866 4.70935C19.4432 5.18998 19.6995 5.70261 19.9552 6.1826L20.0515 6.37523C22.4804 11.1353 24.8191 15.9409 27.0664 20.7893V20.8213C27.323 21.3346 27.547 21.9106 27.8033 22.4239C27.9633 22.8075 28.1237 23.1275 28.2197 23.4482C28.4753 24.2802 28.5713 25.0814 28.443 25.914Z" fill="#191825" fill-opacity="0.5"/>
</svg>
