<svg width="114" height="32" viewBox="0 0 114 32" fill="none" xmlns="http://www.w3.org/2000/svg">
<path d="M55.2708 25.0363H51.7558C51.7336 25.0363 51.7336 25.0363 51.7225 25.0252L48.6969 21.3322L45.6714 25.0252C45.6602 25.0363 45.6491 25.0363 45.638 25.0363H42.8238C42.8015 25.0363 42.7904 25.0252 42.7793 25.0141C42.7793 25.0029 42.7793 24.9807 42.7904 24.9696L47.2509 19.4969L42.846 14.0798C42.8349 14.0576 42.8349 14.0464 42.8349 14.0242C42.846 14.0131 42.8572 14.002 42.8683 14.002H46.3833C46.3944 14.002 46.4055 14.0131 46.4166 14.0242L49.0751 17.3167L51.7781 14.0242C51.7892 14.0131 51.8003 14.002 51.8115 14.002H54.6702C54.6813 14.002 54.7035 14.0131 54.7147 14.0242C54.7258 14.0464 54.7147 14.0576 54.7035 14.0798L50.5323 19.0964L55.3153 24.9696C55.3264 24.9807 55.3264 25.0029 55.3264 25.0141C55.3042 25.0363 55.2931 25.0363 55.2708 25.0363Z" fill="#191825" fill-opacity="0.5"/>
<path d="M74.2804 15.9374C72.7231 15.9374 71.6664 16.8829 71.3549 18.518H76.6496V18.4068C76.6496 17.1054 75.6819 15.9374 74.2804 15.9374ZM79.3749 20.2088C79.3637 20.2199 79.3526 20.231 79.3415 20.231H71.2993C71.4662 22.0998 72.6786 23.1676 74.6474 23.1676C75.8599 23.1676 77.1502 22.756 78.9633 21.7883C78.9967 21.7661 79.03 21.7994 79.03 21.8328V24.3022C79.03 24.3244 79.0189 24.3355 79.0078 24.3355C77.317 25.0474 75.6152 25.5369 74.2804 25.5369C70.821 25.5369 68.3071 23.0119 68.3071 19.5414C68.3071 16.0709 70.821 13.5459 74.2804 13.5459C77.4394 13.5459 79.4638 15.6705 79.4638 18.5959C79.4638 19.0742 79.386 20.1754 79.3749 20.2088Z" fill="#191825" fill-opacity="0.5"/>
<path d="M95.7039 11.7112C94.714 11.7112 93.9131 10.9215 93.9131 9.95373C93.9131 8.95263 94.714 8.14062 95.7039 8.14062C96.6939 8.14062 97.4948 8.95263 97.4948 9.95373C97.4948 10.9215 96.6939 11.7112 95.7039 11.7112ZM94.2579 25.037C94.2245 25.037 94.2134 25.0259 94.2134 24.9925V14.036C94.2134 14.0138 94.2245 13.9915 94.2468 13.9915H97.15C97.1722 13.9915 97.1834 14.0138 97.1834 14.036V24.9925C97.1834 25.0259 97.1611 25.037 97.1389 25.037H94.2579Z" fill="#191825" fill-opacity="0.5"/>
<path d="M60.5874 23.3901C60.0646 23.3901 59.5307 23.3122 58.9078 23.1565L58.9189 16.1265C59.642 15.8929 60.2649 15.7928 60.8878 15.7928C62.9011 15.7928 64.247 17.2722 64.247 19.4858C64.247 21.855 62.8121 23.3901 60.5874 23.3901ZM61.3772 13.5459C60.5541 13.5459 59.7309 13.6905 58.8633 13.9908H55.9713C55.949 13.9908 55.9268 14.0131 55.9268 14.0353V31.9995C56.7944 31.8772 57.8622 31.5657 58.9078 30.8316V25.37C59.6197 25.4701 60.2092 25.5369 60.7765 25.5369C64.7364 25.5369 67.2948 23.1676 67.2948 19.4969C67.2948 15.993 64.8588 13.5459 61.3772 13.5459Z" fill="#191825" fill-opacity="0.5"/>
<path d="M88.9744 22.4781C88.0734 22.9564 87.2614 23.1788 86.505 23.1788C84.7142 23.1788 83.6352 21.9108 83.6352 19.7862C83.6352 17.3391 85.0034 15.7484 87.1279 15.7484C87.7175 15.7484 88.2848 15.893 88.9744 16.2045V22.4781ZM88.9744 8.19568V13.9242C88.129 13.6795 87.3838 13.5683 86.6274 13.5683C83.1791 13.5683 80.5874 16.16 80.5874 19.6082C80.5874 23.0342 82.8788 25.5259 86.0378 25.5259C87.1279 25.5259 88.1513 25.2478 89.3526 24.636V25.626C90.1424 25.4702 91.0545 25.1588 91.9555 24.5136V7.0166C91.0767 7.13896 90.0311 7.43929 88.9744 8.19568Z" fill="#191825" fill-opacity="0.5"/>
<path d="M107.25 22.4559C106.372 22.9565 105.626 23.2012 104.959 23.2012C103.035 23.2012 101.889 21.9331 101.889 19.8086C101.889 17.3948 103.246 15.7708 105.259 15.7708C105.793 15.7708 106.449 15.9821 107.25 16.4048V22.4559ZM110.231 13.8576C110.231 13.7908 110.176 13.7352 110.109 13.7352H107.762C107.695 13.7352 107.628 13.7908 107.628 13.8576V14.258H107.573C106.494 13.7797 105.56 13.5684 104.659 13.5684C101.411 13.5684 98.8633 16.2602 98.8633 19.7084C98.8633 23.1901 101.144 25.526 104.536 25.526C105.437 25.526 106.605 25.4592 107.695 24.2134V25.6261C108.463 25.4592 109.375 25.1366 110.231 24.5137V13.8576Z" fill="#191825" fill-opacity="0.5"/>
<path d="M34.7925 22.3002H42.0783C41.967 23.1122 41.689 24.0688 41.0661 25.0365H33.4911C32.5678 25.0365 31.8003 24.3135 31.7113 23.4125C31.7113 23.4014 31.7002 23.3902 31.7002 23.368V8.99663C31.7002 8.9855 31.7113 8.97438 31.7113 8.96326C31.8003 8.05114 32.5678 7.32812 33.4911 7.32812H42.0672C41.9559 8.14013 41.6778 9.11898 41.0438 10.0867H34.7925V14.0021H40.9882C41.0104 14.0021 41.0327 14.0244 41.0327 14.0466V16.7607C41.0327 16.783 41.0104 16.8052 40.9882 16.8052H34.7925V22.3002Z" fill="#191825" fill-opacity="0.5"/>
<path d="M25.6714 25.2704C24.9484 25.2704 24.5034 24.7031 24.5034 24.0135C24.5034 23.2793 25.0151 22.7565 25.6714 22.7565C26.3165 22.7565 26.8282 23.2682 26.8282 24.0135C26.8282 24.7587 26.3165 25.2704 25.6714 25.2704ZM25.6714 22.623C24.9373 22.623 24.3032 23.1792 24.3032 24.0135C24.3032 24.8032 24.8705 25.4039 25.6714 25.4039C26.3944 25.4039 27.0284 24.8477 27.0284 24.0135C27.0284 23.1792 26.4055 22.623 25.6714 22.623Z" fill="#191825" fill-opacity="0.5"/>
<path d="M25.3486 23.9017V23.3901H25.6934C25.8714 23.3901 26.0716 23.4123 26.0716 23.6236C26.0716 23.8795 25.8825 23.8906 25.6712 23.8906C25.6601 23.9017 25.3486 23.9017 25.3486 23.9017ZM26.3163 23.657C26.3163 23.3233 26.1161 23.1787 25.7157 23.1787H25.0928V24.825H25.3597V24.1242H25.6156L26.0383 24.825H26.3497L25.8937 24.1019C26.1384 24.0797 26.3163 23.9573 26.3163 23.657Z" fill="#191825" fill-opacity="0.5"/>
<path d="M112.634 15.8159C111.911 15.8159 111.466 15.2486 111.466 14.559C111.466 13.8248 111.978 13.302 112.634 13.302C113.279 13.302 113.791 13.8137 113.791 14.559C113.791 15.3042 113.279 15.8159 112.634 15.8159ZM112.634 13.1797C111.9 13.1797 111.266 13.7359 111.266 14.5701C111.266 15.3599 111.833 15.9605 112.634 15.9605C113.357 15.9605 113.991 15.4044 113.991 14.5701C113.991 13.7247 113.357 13.1797 112.634 13.1797Z" fill="#191825" fill-opacity="0.5"/>
<path d="M112.3 14.4472V13.9467H112.645C112.823 13.9467 113.023 13.9689 113.023 14.1803C113.023 14.4361 112.834 14.4472 112.622 14.4472H112.3ZM113.279 14.2137C113.279 13.88 113.079 13.7354 112.678 13.7354H112.055V15.3816H112.322V14.6808H112.578L113.001 15.3816H113.312L112.856 14.6586C113.09 14.6363 113.279 14.514 113.279 14.2137Z" fill="#191825" fill-opacity="0.5"/>
<path d="M16.2722 10.0759L15.7494 8.58534L11.2555 2.58985L12.0564 2.38963L19.7871 9.07476L24.3366 7.77333C24.8705 7.63985 25.4823 7.60648 25.9384 7.60648C24.5146 4.52531 21.8895 1.98919 18.4412 0.765622C11.6226 -1.67039 4.11434 1.9002 1.68945 8.72994C0.933065 10.8434 0.766215 13.0236 1.07767 15.0925L11.9674 11.3106L16.2722 10.0759Z" fill="#191825" fill-opacity="0.5"/>
<path d="M26.4278 8.78516C26.0274 9.04099 25.4379 9.38582 24.8595 9.57491L20.2989 10.8763L17.2622 20.6426L16.4724 20.8985L17.1176 13.4458L16.7617 11.8997L12.4903 13.1233L1.18896 15.7595C2.08996 20.0976 5.16 23.8907 9.64271 25.4813C16.4724 27.9173 23.9696 24.3467 26.4056 17.517C27.4512 14.5915 27.3845 11.5215 26.4278 8.78516Z" fill="#191825" fill-opacity="0.5"/>
<path d="M16.7508 11.8894L17.1068 13.4355L16.4616 20.8882L17.2514 20.6323L20.288 10.866L24.8486 9.56459C25.427 9.37549 26.0166 9.04179 26.417 8.77483C26.2724 8.37439 26.1167 7.98507 25.9387 7.59576C25.4715 7.59576 24.8709 7.618 24.3369 7.76261L19.7875 9.06404L12.0568 2.37891L11.2559 2.57913L15.7386 8.57461L16.2614 10.0651L11.9567 11.2998L1.06689 15.0818C1.10026 15.3042 1.14476 15.5378 1.18925 15.7603L12.4795 13.1018L16.7508 11.8894Z" fill="white"/>
</svg>
