<svg width="212" height="32" viewBox="0 0 212 32" fill="none" xmlns="http://www.w3.org/2000/svg">
<path d="M22.8011 19.2265C24.6228 24.1621 30.1134 26.6885 35.0504 24.871C39.9845 23.0408 42.5166 17.5559 40.6878 12.6189C38.8647 7.67631 33.3826 5.15416 28.4385 6.97587C23.4987 8.80465 20.9766 14.2867 22.8011 19.2265Z" fill="white"/>
<path d="M10.6083 25.4216C15.8743 25.4216 20.1433 21.1527 20.1433 15.8866C20.1433 10.6205 15.8743 6.35156 10.6083 6.35156C5.34222 6.35156 1.07324 10.6205 1.07324 15.8866C1.07324 21.1527 5.34222 25.4216 10.6083 25.4216Z" fill="white"/>
<path d="M12.2338 15.7851C12.2338 16.7567 11.4444 17.5531 10.4728 17.5531C9.49698 17.5531 8.70898 16.7581 8.70898 15.7851C8.70898 14.8149 9.49698 14.0283 10.4728 14.0283C11.4444 14.0297 12.2338 14.8149 12.2338 15.7851Z" fill="#191825" fill-opacity="0.5"/>
<path d="M33.4824 15.7851C33.4824 16.7567 32.6958 17.5531 31.7243 17.5531C30.7456 17.5531 29.9604 16.7581 29.9604 15.7851C29.9604 14.8149 30.7456 14.0283 31.7243 14.0283C32.6973 14.0297 33.4824 14.8149 33.4824 15.7851Z" fill="#191825" fill-opacity="0.5"/>
<path d="M5.2334 15.7849C5.2334 18.6756 7.58468 21.0226 10.4754 21.0226C13.3591 21.0226 15.7089 18.6756 15.7089 15.7849C15.7089 12.9012 13.3577 10.5527 10.4754 10.5527C7.58609 10.5556 5.2334 12.9026 5.2334 15.7849ZM7.03958 15.7849C7.03958 13.894 8.5845 12.3561 10.4782 12.3561C12.3691 12.3561 13.9056 13.8982 13.9056 15.7849C13.9056 17.6814 12.3691 19.2221 10.4782 19.2221C8.5845 19.2235 7.03958 17.6842 7.03958 15.7849Z" fill="#191825" fill-opacity="0.5"/>
<path d="M26.4854 15.7849C26.4854 18.6756 28.8338 21.0226 31.7231 21.0226C34.6082 21.0226 36.9553 18.6756 36.9553 15.7849C36.9553 12.9012 34.6082 10.5527 31.7231 10.5527C28.8352 10.5556 26.4854 12.9026 26.4854 15.7849ZM28.2915 15.7849C28.2915 13.894 29.8322 12.3561 31.7274 12.3561C33.6183 12.3561 35.1533 13.8982 35.1533 15.7849C35.1533 17.6814 33.6183 19.2221 31.7274 19.2221C29.8294 19.2235 28.2915 17.6842 28.2915 15.7849Z" fill="#191825" fill-opacity="0.5"/>
<path d="M28.0715 5.97166C29.1758 5.56496 30.3056 5.36725 31.4212 5.33618C28.3822 3.97625 24.9421 3.28711 21.1306 3.28711C17.3488 3.28711 13.8579 3.99179 10.8203 5.29099C16.3179 5.39973 20.7875 9.70547 21.173 15.1325C21.2662 13.8869 21.5712 12.6555 22.1093 11.4891C23.2941 8.909 25.4138 6.95172 28.0715 5.97166Z" fill="white"/>
<path d="M40.2697 9.6225C40.7668 7.49434 42.3442 5.36477 42.3442 5.36477L35.265 5.36054C31.2953 2.79743 26.4741 1.4375 21.1333 1.4375C15.5891 1.4375 10.5829 2.82991 6.63583 5.41137L0 5.41702C0 5.41702 1.55905 7.52258 2.0632 9.63521C0.772462 11.3905 0.00564872 13.5469 0.00564872 15.8883C0.00564872 21.7334 4.76328 26.4882 10.6111 26.4882C13.9538 26.4882 16.9349 24.9305 18.8794 22.5101L21.1375 25.8908L23.4125 22.4804C24.4364 23.7824 25.7568 24.8387 27.3045 25.5547C29.8789 26.7381 32.764 26.8553 35.4203 25.8739C40.9066 23.8446 43.7239 17.7284 41.6946 12.2492C41.3387 11.2846 40.853 10.4077 40.2697 9.6225ZM21.1319 3.28887C24.9433 3.28887 28.3834 3.97801 31.4224 5.33935C30.3054 5.36901 29.1771 5.56813 28.0727 5.97201C25.415 6.95206 23.2953 8.90935 22.1133 11.4852C21.5753 12.6516 21.2717 13.883 21.1771 15.1286C20.7887 9.7044 16.3192 5.39866 10.8215 5.2871C13.8577 3.99213 17.3472 3.28887 21.1319 3.28887ZM17.6184 20.6248C16.096 22.8702 13.5202 24.3501 10.6083 24.3501C5.93963 24.3501 2.14087 20.5485 2.14087 15.8898C2.14087 11.2183 5.94104 7.42373 10.6083 7.42373C15.2756 7.42373 19.0743 11.2183 19.0743 15.8898C19.0743 16.175 19.0192 16.4433 18.9896 16.7187C18.8484 18.1492 18.388 19.4894 17.6184 20.6248ZM34.6789 23.8672C32.5578 24.6467 30.2574 24.5605 28.2026 23.613C26.7453 22.9379 25.552 21.8802 24.692 20.5669C24.3417 20.0359 24.0339 19.4725 23.8065 18.8553C23.5481 18.1577 23.4196 17.4389 23.3504 16.7145C23.2092 15.2458 23.4224 13.7602 24.0551 12.3833C25.0041 10.3286 26.693 8.7653 28.8141 7.98013C33.1947 6.3646 38.071 8.61138 39.6893 12.9905C41.3063 17.3697 39.0581 22.246 34.6789 23.8672Z" fill="#191825" fill-opacity="0.5"/>
<path d="M54.8517 2.98674L51.7477 4.05859C51.7477 4.05859 51.7477 7.77545 51.7477 8.10872C51.4229 8.10872 48.3076 8.10872 48.3076 8.10872V10.8243C48.3076 10.8243 51.3269 10.8243 51.6545 10.8243C51.6545 11.1774 51.6545 19.5431 51.6545 19.5431C51.6545 23.6865 53.0653 25.3867 56.535 25.3867C57.4148 25.3867 58.255 25.278 59.0981 25.0478L59.2351 25.0139L59.1969 22.198L58.9597 22.2884C58.2776 22.5243 57.7438 22.6401 57.3314 22.6401C55.7018 22.6401 55.0974 21.7235 55.0974 19.2494C55.0974 19.2494 55.0974 11.176 55.0974 10.8286C55.4278 10.8286 59.067 10.8286 59.067 10.8286V8.10872C59.067 8.10872 55.4292 8.10872 55.0974 8.10872C55.0974 7.77262 55.0974 2.90625 55.0974 2.90625L54.8517 2.98674Z" fill="#191825" fill-opacity="0.5"/>
<path d="M65.5842 10.8596C65.5842 9.9035 65.5842 8.10862 65.5842 8.10862H62.4351V25.0873H65.878V16.5648C65.878 12.9919 67.3791 11.0234 70.099 11.0234C70.493 11.0234 70.8757 11.0827 71.3417 11.214L71.5648 11.2776L71.6778 7.92645L70.1964 7.81348C68.201 7.81207 66.5897 8.88956 65.5842 10.8596Z" fill="#191825" fill-opacity="0.5"/>
<path d="M77.8143 8.1072H74.555V25.0872H77.9978V8.1072H77.8143ZM74.2217 3.13209C74.2217 4.26183 75.1424 5.17834 76.2693 5.17834C77.3991 5.17834 78.317 4.26183 78.317 3.13209C78.317 2.00376 77.3991 1.08301 76.2693 1.08301C75.1424 1.08019 74.2217 2.00376 74.2217 3.13209Z" fill="#191825" fill-opacity="0.5"/>
<path d="M90.1568 7.70898C87.7943 7.70898 85.8073 8.82743 84.4827 10.8624C84.4827 10.049 84.4827 8.10439 84.4827 8.10439H81.335V31.9999H84.7807C84.7807 31.9999 84.7807 23.6553 84.7807 22.7374C86.0234 24.4278 87.8056 25.357 90.0241 25.357C94.3764 25.357 97.1881 21.7856 97.1881 16.271C97.1881 11.1505 94.3609 7.70898 90.1568 7.70898ZM89.1952 22.5722C86.4711 22.5722 84.7793 20.2435 84.7793 16.5026C84.7793 12.8917 86.5643 10.5588 89.3265 10.5588C91.9884 10.5588 93.58 12.7702 93.58 16.4673C93.5814 20.2308 91.8995 22.5722 89.1952 22.5722Z" fill="#191825" fill-opacity="0.5"/>
<path d="M107.251 7.70898C105.145 7.70898 103.301 8.10722 101.609 8.92063L101.505 8.97147L101.541 11.9102L101.813 11.7577C103.43 10.8539 104.96 10.3921 106.354 10.3921C108.848 10.3921 110.28 11.8213 110.28 14.3194C110.28 14.3194 110.28 14.3914 110.28 14.4649C109.976 14.4649 108.31 14.4649 108.31 14.4649C102.642 14.4649 99.5234 16.5182 99.5234 20.2407C99.5234 23.2303 101.774 25.3203 104.997 25.3203C107.368 25.3203 109.203 24.3882 110.51 22.6343C110.51 23.3164 110.51 25.0859 110.51 25.0859H113.621V14.8108C113.62 10.1012 111.478 7.70898 107.251 7.70898ZM110.274 17.919C110.274 20.8437 108.515 22.736 105.792 22.736C104.124 22.736 102.961 21.6401 102.961 20.0726C102.961 18.0122 104.931 16.8811 108.506 16.8811C108.506 16.8811 109.979 16.8811 110.277 16.8811C110.274 17.1452 110.274 17.919 110.274 17.919Z" fill="#191825" fill-opacity="0.5"/>
<path d="M128.243 0C128.243 0 128.243 9.46584 128.243 10.412C126.973 8.64678 125.206 7.71192 122.937 7.71192C118.725 7.71192 115.895 11.1802 115.895 16.3347C115.895 21.6445 118.765 25.3529 122.868 25.3529C125.298 25.3529 127.193 24.2768 128.507 22.1853C128.507 23.0312 128.507 25.0888 128.507 25.0888H131.69V0H128.243ZM123.76 22.5031C121.137 22.5031 119.507 20.2154 119.507 16.5324C119.507 12.8452 121.151 10.4614 123.698 10.4614C126.542 10.4614 128.24 12.7294 128.24 16.5324C128.243 20.1659 126.489 22.5031 123.76 22.5031Z" fill="#191825" fill-opacity="0.5"/>
<path d="M147.074 8.10742L142.192 17.9122L137.679 8.10742H133.8L142.12 25.0875L150.667 8.10742H147.074Z" fill="#191825" fill-opacity="0.5"/>
<path d="M155.679 8.1072H152.418V25.0872H155.866V8.1072H155.679ZM152.089 3.13209C152.089 4.26183 153.009 5.17834 154.137 5.17834C155.271 5.17834 156.185 4.26183 156.185 3.13209C156.185 2.00376 155.268 1.08301 154.137 1.08301C153.01 1.08019 152.089 2.00376 152.089 3.13209Z" fill="#191825" fill-opacity="0.5"/>
<path d="M159.902 12.4613C159.902 14.8493 161.543 16.1075 164.574 17.5903C166.485 18.5294 167.483 19.083 167.483 20.4062C167.483 21.7633 166.257 22.6403 164.354 22.6403C163.008 22.6403 161.514 22.2618 160.034 21.5346L159.782 21.4103L159.671 24.4041L159.785 24.4465C161.2 25.0099 162.687 25.2853 164.224 25.2853C168.435 25.2853 171.153 23.2786 171.153 20.1732C171.153 17.5847 169.432 16.2699 166.448 14.8775C164.263 13.8509 163.347 13.2535 163.347 12.1647C163.347 11.1338 164.366 10.4616 165.942 10.4616C167.366 10.4616 168.755 10.778 170.07 11.405L170.319 11.5194L170.468 8.59051L170.331 8.55097C168.905 8.12731 167.497 7.91408 166.142 7.91408C162.411 7.90843 159.902 9.73861 159.902 12.4613Z" fill="#191825" fill-opacity="0.5"/>
<path d="M181.896 7.70898C176.722 7.70898 173.509 11.1166 173.509 16.5958C173.509 22.0779 176.725 25.4799 181.896 25.4799C187.094 25.4799 190.321 22.0765 190.321 16.5958C190.321 11.118 187.092 7.70898 181.896 7.70898ZM181.926 22.671C179.066 22.671 177.146 20.2167 177.146 16.5634C177.146 12.8903 179.066 10.4274 181.926 10.4274C184.832 10.4274 186.709 12.838 186.709 16.5634C186.709 20.2746 184.835 22.671 181.926 22.671Z" fill="#191825" fill-opacity="0.5"/>
<path d="M196.673 10.8596C196.673 9.9035 196.673 8.10862 196.673 8.10862H193.524V25.0873H196.967V16.5648C196.967 12.9919 198.459 11.0234 201.184 11.0234C201.575 11.0234 201.955 11.0827 202.412 11.214L202.645 11.2776L202.753 7.92645L201.277 7.81348C199.29 7.81207 197.681 8.88956 196.673 10.8596Z" fill="#191825" fill-opacity="0.5"/>
<path d="M210.966 7.35641C211.53 7.92834 211.827 8.68809 211.827 9.50575C211.827 10.3601 211.508 11.1255 210.92 11.689C210.308 12.2708 209.548 12.5829 208.754 12.5829C207.925 12.5829 207.163 12.2567 206.569 11.6438C206.003 11.0563 205.683 10.305 205.683 9.50292C205.683 8.68527 206.009 7.89304 206.619 7.29145C207.191 6.73081 207.927 6.42578 208.754 6.42578C209.603 6.42719 210.375 6.74917 210.966 7.35641ZM207 7.69392C206.503 8.19101 206.238 8.83072 206.238 9.50575C206.238 10.1638 206.483 10.7696 206.958 11.2526C207.434 11.7497 208.065 12.018 208.741 12.018C209.399 12.018 210.032 11.7652 210.521 11.2907C211.001 10.829 211.265 10.1963 211.265 9.50433C211.265 8.8279 211.019 8.2136 210.553 7.74334C210.065 7.24626 209.445 6.985 208.754 6.985C208.073 6.985 207.476 7.2279 207 7.69392ZM208.811 7.75182C209.774 7.75182 210.268 8.10063 210.268 8.73187C210.268 9.16682 210.01 9.50433 209.551 9.64273L210.307 11.1241H209.282L208.651 9.78677H208.384V11.1241H207.455V7.75041L208.811 7.75182ZM208.377 9.23743H208.7C209.114 9.23743 209.313 9.09198 209.313 8.80248C209.313 8.47203 209.104 8.33646 208.651 8.33646H208.377V9.23743Z" fill="#191825" fill-opacity="0.5"/>
</svg>
