<svg width="189" height="32" viewBox="0 0 189 32" fill="none" xmlns="http://www.w3.org/2000/svg">
<mask id="mask0_381_419" style="mask-type:luminance" maskUnits="userSpaceOnUse" x="0" y="0" width="189" height="32">
<path d="M188.696 0H0.0927734V32H188.696V0Z" fill="white"/>
</mask>
<g mask="url(#mask0_381_419)">
<mask id="mask1_381_419" style="mask-type:luminance" maskUnits="userSpaceOnUse" x="0" y="0" width="189" height="32">
<path d="M188.696 0H0.0927734V32H188.696V0Z" fill="white"/>
</mask>
<g mask="url(#mask1_381_419)">
<path d="M74.0498 3.50337C74.0498 1.92308 75.3317 0.633789 76.9194 0.633789C78.4997 0.633789 79.789 1.91571 79.789 3.50337C79.7337 5.08366 78.4002 6.31768 76.8162 6.26243C75.3133 6.20717 74.1087 5.00262 74.0498 3.50337Z" fill="#191825" fill-opacity="0.5"/>
</g>
<mask id="mask2_381_419" style="mask-type:luminance" maskUnits="userSpaceOnUse" x="0" y="0" width="189" height="32">
<path d="M188.696 0H0.0927734V32H188.696V0Z" fill="white"/>
</mask>
<g mask="url(#mask2_381_419)">
<path d="M119.274 22.6182C119.274 21.0268 120.556 19.7412 122.132 19.7412C123.72 19.7412 125.006 21.0268 125.006 22.6182C125.006 24.2058 123.72 25.4914 122.132 25.4914C120.556 25.4914 119.274 24.2021 119.274 22.6182Z" fill="#191825" fill-opacity="0.5"/>
</g>
<mask id="mask3_381_419" style="mask-type:luminance" maskUnits="userSpaceOnUse" x="0" y="0" width="189" height="32">
<path d="M188.696 0H0.0927734V32H188.696V0Z" fill="white"/>
</mask>
<g mask="url(#mask3_381_419)">
<path d="M27.0205 21.3765C24.5561 21.3765 22.8359 19.4168 22.8359 16.6136C22.8359 13.814 24.5524 11.8543 27.0205 11.8543C29.4996 11.8543 31.2383 13.814 31.2383 16.6136C31.2346 19.461 29.5401 21.3765 27.0205 21.3765ZM27.0205 7.66963C21.8007 7.66963 18.0103 11.4307 18.0103 16.6136C18.0103 21.7965 21.8044 25.5575 27.0205 25.5575C32.266 25.5575 36.0676 21.7965 36.0676 16.6173C36.0676 11.4307 32.2587 7.66963 27.0205 7.66963ZM68.5023 17.063C68.3218 16.713 68.0897 16.3852 67.8208 16.0979L67.6624 15.9321L67.8281 15.7737C68.0676 15.5195 68.3144 15.2211 68.5465 14.8749L73.1547 8.02326H67.5592L64.0966 13.383C63.9014 13.674 63.5072 13.8103 62.9141 13.8103H62.1221V3.67653C62.1221 1.65052 60.8623 1.37793 59.4957 1.37793H57.1602L57.1639 25.2923H62.1185V18.1239H62.5826C63.1462 18.1239 63.5293 18.1902 63.7098 18.4959L66.4431 23.6567C67.2093 25.0565 67.9681 25.296 69.3974 25.296H73.2063L70.3736 20.6214L68.5023 17.063ZM92.5713 7.63279C90.048 7.63279 88.4383 8.75262 87.5394 9.70301L87.2411 10.0088L87.1342 9.59619C86.869 8.57949 85.9776 8.02695 84.633 8.02695H82.4118L82.4265 25.296H87.3516V17.3393C87.3516 16.5583 87.451 15.8879 87.6573 15.269C88.2062 13.4051 89.7349 12.2411 91.643 12.2411C93.1791 12.2411 93.7832 13.0515 93.7832 15.1512V22.6732C93.7832 24.4598 94.6084 25.2996 96.4023 25.2996H98.7415L98.7304 14.315C98.7304 9.93508 96.5976 7.63279 92.5713 7.63279ZM76.9821 8.02326H74.6466L74.6613 21.3765V25.2923H77.1515L77.2399 25.296L78.4039 25.2923H79.5569V25.2886H79.568L79.579 10.6497C79.5717 8.88156 78.7281 8.02326 76.9821 8.02326ZM46.3561 21.3765C43.8917 21.3765 42.1714 19.4168 42.1714 16.6136C42.1714 13.814 43.8917 11.8543 46.3561 11.8543C48.8315 11.8543 50.5739 13.814 50.5739 16.6136C50.5702 19.461 48.8757 21.3765 46.3561 21.3765ZM46.3561 7.66963C41.1326 7.66963 37.3384 11.4307 37.3384 16.6136C37.3384 21.7965 41.1326 25.5575 46.3561 25.5575C51.5905 25.5575 55.4031 21.7965 55.4031 16.6173C55.4031 11.4307 51.5942 7.66963 46.3561 7.66963Z" fill="#191825" fill-opacity="0.5"/>
</g>
</g>
<mask id="mask4_381_419" style="mask-type:luminance" maskUnits="userSpaceOnUse" x="0" y="0" width="189" height="32">
<path d="M188.696 0H0.0927734V32H188.696V0Z" fill="white"/>
</mask>
<g mask="url(#mask4_381_419)">
<mask id="mask5_381_419" style="mask-type:luminance" maskUnits="userSpaceOnUse" x="0" y="0" width="189" height="32">
<path d="M188.656 0.629883H0.0927734V31.9595H188.656V0.629883Z" fill="white"/>
</mask>
<g mask="url(#mask5_381_419)">
<mask id="mask6_381_419" style="mask-type:luminance" maskUnits="userSpaceOnUse" x="0" y="0" width="189" height="32">
<path d="M188.696 0H0.0927734V32H188.696V0Z" fill="white"/>
</mask>
<g mask="url(#mask6_381_419)">
<path d="M151.885 21.3759C149.421 21.3759 147.701 19.4162 147.701 16.6129C147.701 13.8133 149.421 11.8536 151.885 11.8536C154.364 11.8536 156.103 13.8133 156.103 16.6129C156.103 19.4604 154.405 21.3759 151.885 21.3759ZM151.885 7.66895C146.662 7.66895 142.868 11.43 142.868 16.6129C142.868 21.7958 146.654 25.5568 151.885 25.5568C157.123 25.5568 160.932 21.7958 160.932 16.6166C160.932 11.43 157.12 7.66895 151.885 7.66895Z" fill="#191825" fill-opacity="0.5"/>
</g>
<mask id="mask7_381_419" style="mask-type:luminance" maskUnits="userSpaceOnUse" x="0" y="0" width="189" height="32">
<path d="M188.696 0H0.0927734V32H188.696V0Z" fill="white"/>
</mask>
<g mask="url(#mask7_381_419)">
<path d="M109.107 20.6099C106.415 20.6099 105.461 18.2634 105.461 16.0642C105.461 15.0917 105.707 11.9348 108.857 11.9348C110.419 11.9348 112.5 12.3842 112.5 16.2226C112.496 19.851 110.651 20.6099 109.107 20.6099ZM115.053 7.97858C114.117 7.97858 113.399 8.35063 113.038 9.03211L112.905 9.29734L112.677 9.09473C111.881 8.40589 110.456 7.5918 108.146 7.5918C103.541 7.5918 100.443 11.0471 100.443 16.1968C100.443 21.3392 103.652 24.9308 108.242 24.9308C109.807 24.9308 111.049 24.5624 112.028 23.8183L112.404 23.5347V24.0136C112.404 26.3232 110.912 27.5941 108.209 27.5941C106.89 27.5941 105.696 27.2736 104.897 26.9826C103.854 26.6658 103.239 26.931 102.819 27.9735L102.425 28.9386L101.873 30.3495L102.215 30.53C103.947 31.4509 106.201 31.9961 108.234 31.9961C112.426 31.9961 117.322 29.8522 117.322 23.811L117.337 7.96753H115.053" fill="#191825" fill-opacity="0.5"/>
</g>
</g>
</g>
<mask id="mask8_381_419" style="mask-type:luminance" maskUnits="userSpaceOnUse" x="0" y="0" width="189" height="32">
<path d="M188.696 0H0.0927734V32H188.696V0Z" fill="white"/>
</mask>
<g mask="url(#mask8_381_419)">
<mask id="mask9_381_419" style="mask-type:luminance" maskUnits="userSpaceOnUse" x="0" y="0" width="189" height="32">
<path d="M188.696 0H0.0927734V32H188.696V0Z" fill="white"/>
</mask>
<g mask="url(#mask9_381_419)">
<path d="M8.68677 21.1734L4.67525 21.1697V16.381C4.67525 15.3532 5.07309 14.8265 5.94612 14.7012H8.6794C10.6281 14.7012 11.8879 15.9316 11.8952 17.9207C11.8952 19.9652 10.6649 21.1734 8.68677 21.1734ZM4.67525 8.25112V6.9913C4.67525 5.8862 5.1394 5.36312 6.16714 5.29682H8.21894C9.97605 5.29682 11.0296 6.35034 11.0296 8.11114C11.0296 9.45568 10.3076 11.0212 8.28156 11.0212H4.67525V8.25112ZM13.7997 13.0325L13.0777 12.6236L13.7076 12.0821C14.448 11.4522 15.6747 10.0266 15.6747 7.56964C15.6747 3.80862 12.7609 1.38477 8.24841 1.38477H2.51663C1.17945 1.43265 0.107508 2.5267 0.0927734 3.86387V25.1997H8.35524C13.3724 25.1997 16.6066 22.4701 16.6066 18.2412C16.6066 15.9721 15.5568 14.0234 13.7997 13.0325Z" fill="#191825" fill-opacity="0.5"/>
</g>
<mask id="mask10_381_419" style="mask-type:luminance" maskUnits="userSpaceOnUse" x="0" y="0" width="189" height="32">
<path d="M188.696 0H0.0927734V32H188.696V0Z" fill="white"/>
</mask>
<g mask="url(#mask10_381_419)">
<path d="M182.924 7.68825C180.869 7.69194 178.92 8.63864 177.638 10.2521L177.281 10.7015L177.001 10.1968C176.087 8.53182 174.522 7.69194 172.334 7.69194C170.046 7.69194 168.51 8.96649 167.795 9.72901L167.331 10.2337L167.151 9.56692C166.893 8.60917 166.038 8.08241 164.749 8.08241H162.679L162.657 25.2851H167.357V17.6894C167.357 17.0227 167.438 16.367 167.604 15.6781C168.053 13.8437 169.287 11.8692 171.361 12.0644C172.636 12.1897 173.262 13.1769 173.262 15.0814V25.2814H177.995V17.6857C177.995 16.8532 178.073 16.227 178.261 15.6081C178.636 13.8547 179.929 12.0571 181.93 12.0571C183.377 12.0571 183.915 12.8749 183.915 15.0814V22.7655C183.915 24.5005 184.689 25.2814 186.427 25.2814H188.637L188.641 14.3004C188.656 9.90951 186.722 7.68825 182.924 7.68825ZM140.146 19.3102C140.131 19.325 138.109 21.4615 135.445 21.4615C133.018 21.4615 130.568 19.9733 130.568 16.6506C130.568 13.781 132.469 11.7734 135.191 11.7734C136.075 11.7734 137.077 12.0902 137.236 12.6207L137.258 12.7091C137.464 13.4642 138.153 13.9836 138.93 13.98L141.505 13.9836V11.7292C141.505 8.75652 137.729 7.68457 135.184 7.68457C129.747 7.68457 125.805 11.4677 125.805 16.6801C125.805 21.8888 129.706 25.6719 135.084 25.6719C139.752 25.6719 142.286 22.6034 142.312 22.5776L142.444 22.4119L140.404 19.0266L140.146 19.3102Z" fill="#191825" fill-opacity="0.5"/>
</g>
</g>
</svg>
